<svg width="419" height="421" viewBox="0 0 419 421" fill="none" xmlns="http://www.w3.org/2000/svg">
<g clip-path="url(#clip0_1901_94)">
<path d="M419 210.5C419.073 260.189 401.58 308.289 369.641 346.225C368.481 347.609 367.299 348.971 366.096 350.326C351.935 366.328 335.439 380.079 317.171 391.108C312.981 393.635 308.7 396.017 304.326 398.253C303.884 398.479 303.434 398.704 302.992 398.923C302.463 399.193 301.927 399.455 301.39 399.717C290.323 405.16 278.794 409.601 266.942 412.988C265.71 413.338 264.475 413.677 263.238 414.008C247.647 418.153 231.631 420.472 215.51 420.92C214.669 420.942 213.842 420.956 213.045 420.971C212.762 420.978 212.487 420.985 212.211 420.985C211.305 420.993 210.406 421 209.5 421C192.511 421.013 175.583 418.951 159.09 414.86C157.437 414.452 155.791 414.022 154.153 413.571C145.523 411.203 137.055 408.276 128.803 404.808C124.453 402.987 120.181 401.023 115.986 398.916C115.036 398.435 114.087 397.954 113.152 397.459C112.753 397.262 112.362 397.051 111.97 396.847C89.6126 384.99 69.5629 369.185 52.7809 350.188C51.6211 348.884 50.483 347.558 49.3593 346.225C30.8687 324.197 17.076 298.59 8.83528 270.988C0.594577 243.386 -1.91859 214.379 1.45144 185.762C4.82147 157.145 14.0029 129.527 28.4272 104.621C42.8514 79.7136 62.2113 58.0474 85.3078 40.9637C86.4967 40.0824 87.6928 39.2084 88.9034 38.3562C89.1426 38.1886 89.3818 38.0211 89.621 37.8536C110.892 22.8826 134.767 12.0492 160.01 5.91438C161.445 5.55748 162.881 5.22244 164.331 4.90924C191.672 -1.10007 219.929 -1.5977 247.464 3.4452C248.906 3.71469 250.349 3.99148 251.784 4.29011C276.801 9.44592 300.661 19.1811 322.173 33.0099C322.652 33.3158 323.13 33.6217 323.609 33.9422C324.573 34.5686 325.537 35.2096 326.487 35.8578C354.983 55.1075 378.328 81.1071 394.462 111.564C410.596 142.02 419.023 175.998 419 210.5Z" fill="#F2F2F2"/>
<path d="M156.581 319.399L89.621 325.372L88.9034 325.437V38.3561C89.1426 38.1885 89.3818 38.021 89.621 37.8535C103.576 28.0457 118.672 19.9884 134.573 13.8608L137.994 61.278L138.306 65.6191L141.692 112.643L142.735 127.108L156.458 317.724L156.581 319.399Z" fill="#CCCCCC"/>
<path d="M322.173 33.0101C322.652 33.3161 323.13 33.622 323.609 33.9425V325.438L322.173 325.307L255.938 319.399L256.061 317.724L269.784 127.109L270.828 112.643L274.213 65.6194L274.525 61.2783L278.113 11.5522C293.587 16.9417 308.376 24.144 322.173 33.0101Z" fill="#CCCCCC"/>
<path d="M322.173 33.0098V329.414C322.173 335.103 318.273 339.728 313.474 339.728H98.32C94.3475 339.728 90.9766 336.552 89.9545 332.218C89.7314 331.301 89.6194 330.359 89.6211 329.414V37.8534C89.3818 38.021 89.1426 38.1885 88.9034 38.356C87.6928 39.2082 86.4967 40.0823 85.3078 40.9636V329.414C85.2436 333.735 86.8495 337.913 89.7878 341.068C91.3285 342.69 93.2773 343.863 95.4276 344.462C96.3703 344.72 97.3431 344.85 98.32 344.848H313.474C314.454 344.849 315.429 344.72 316.374 344.462C322.159 342.896 326.487 336.749 326.487 329.414V35.8577C325.537 35.2094 324.573 34.5685 323.609 33.9421C323.13 33.6216 322.652 33.3157 322.173 33.0098Z" fill="#CCCCCC"/>
<path d="M324.332 61.2808H87.4645V65.6212H324.332V61.2808Z" fill="#CCCCCC"/>
<path d="M160.01 5.91433C161.445 5.55742 162.881 5.22238 164.331 4.90918V122.767H160.01V5.91433Z" fill="#CCCCCC"/>
<path d="M247.464 3.44531C248.906 3.71481 250.349 3.9916 251.784 4.29023V122.767H247.464V3.44531Z" fill="#CCCCCC"/>
<path d="M351.329 317.724H67.6634C62.5071 317.724 57.5619 319.782 53.9157 323.446C50.2696 327.109 48.2213 332.078 48.2213 337.259C48.2213 342.44 50.2696 347.409 53.9157 351.072C57.5619 354.736 62.5071 356.794 67.6634 356.794H351.329C354.09 356.795 356.82 356.203 359.335 355.059C361.85 353.914 364.093 352.244 365.915 350.159C366.739 349.216 367.472 348.196 368.104 347.114C368.593 346.284 369.017 345.417 369.372 344.521C370.557 341.557 370.999 338.347 370.661 335.172C370.324 331.996 369.215 328.952 367.434 326.307C365.653 323.662 363.254 321.497 360.446 320C357.638 318.504 354.508 317.722 351.329 317.724Z" fill="#CCCCCC"/>
<path d="M324.332 112.642H88.9045V127.11H324.332V112.642Z" fill="#CCCCCC"/>
<path d="M204.458 108.302H208.778C209.818 108.302 210.848 108.508 211.809 108.907C212.769 109.307 213.642 109.894 214.378 110.632C215.113 111.371 215.697 112.249 216.095 113.214C216.493 114.179 216.697 115.214 216.697 116.259H196.539C196.539 114.149 197.373 112.125 198.858 110.632C200.343 109.14 202.358 108.302 204.458 108.302Z" fill="#CCCCCC"/>
<path d="M369.641 346.225C363.343 353.723 356.532 360.769 349.256 367.311H69.7439C62.4683 360.769 55.6569 353.723 49.3594 346.225H369.641Z" fill="#0C3948"/>
<path d="M232.9 273.191H185.839C185.585 273.188 185.333 273.228 185.092 273.308C184.581 273.466 184.134 273.785 183.817 274.218C183.5 274.651 183.33 275.174 183.331 275.711V350.413H235.416V275.711C235.415 275.38 235.35 275.052 235.223 274.745C235.097 274.439 234.911 274.161 234.678 273.927C234.444 273.693 234.167 273.508 233.862 273.381C233.557 273.255 233.23 273.19 232.9 273.191ZM215.089 310.047C215.091 311.258 214.693 312.437 213.958 313.397C213.257 314.33 212.282 315.017 211.171 315.364C210.06 315.71 208.869 315.697 207.766 315.327C206.663 314.957 205.703 314.248 205.022 313.301C204.34 312.354 203.972 311.215 203.969 310.047V301.379C203.982 299.906 204.574 298.499 205.616 297.462C206.657 296.426 208.063 295.844 209.529 295.844C210.995 295.844 212.401 296.426 213.442 297.462C214.484 298.499 215.075 299.906 215.089 301.379V310.047Z" fill="#2F2E41"/>
<path d="M183.171 348.024V355.228C183.171 355.602 183.318 355.96 183.58 356.225C183.843 356.49 184.198 356.639 184.57 356.641H234.176C234.547 356.638 234.903 356.488 235.164 356.223C235.426 355.959 235.574 355.601 235.575 355.228V348.024H183.171Z" fill="#E5BE7F"/>
<path d="M310.828 156.615H109.665C107.937 156.617 106.279 157.307 105.057 158.535C103.834 159.762 103.145 161.426 103.141 163.163V299.558C103.142 301.296 103.83 302.963 105.053 304.192C106.276 305.421 107.935 306.112 109.665 306.113H310.828C312.558 306.112 314.217 305.421 315.44 304.192C316.663 302.963 317.351 301.296 317.353 299.558V163.163C317.349 161.426 316.66 159.762 315.437 158.535C314.214 157.307 312.557 156.617 310.828 156.615Z" fill="#E5BE7F"/>
<path d="M309.147 161.349H111.339C110.414 161.351 109.527 161.722 108.874 162.38C108.22 163.038 107.853 163.93 107.853 164.86V297.876C107.854 298.804 108.222 299.694 108.876 300.351C109.529 301.008 110.415 301.377 111.339 301.379H309.147C310.071 301.377 310.957 301.008 311.61 300.351C312.264 299.694 312.632 298.804 312.633 297.876V164.86C312.633 163.93 312.266 163.038 311.612 162.38C310.959 161.722 310.072 161.351 309.147 161.349Z" fill="#173B59"/>
<path d="M272.741 356.524L270.915 347.806C270.839 347.45 270.676 347.119 270.44 346.843C270.205 346.567 269.904 346.355 269.566 346.225C269.321 346.129 269.061 346.079 268.798 346.08H154.762C154.499 346.079 154.238 346.129 153.993 346.225C153.655 346.355 153.355 346.567 153.119 346.843C152.884 347.119 152.721 347.45 152.645 347.806L150.818 356.524C150.752 356.841 150.757 357.168 150.833 357.483C150.909 357.797 151.053 358.09 151.256 358.341C151.459 358.593 151.714 358.795 152.005 358.934C152.295 359.074 152.613 359.146 152.935 359.147H270.617C270.94 359.148 271.259 359.076 271.551 358.936C271.842 358.796 272.098 358.592 272.299 358.338C272.502 358.088 272.647 357.795 272.724 357.481C272.8 357.168 272.806 356.841 272.741 356.524Z" fill="#2F2E41"/>
<path d="M158.868 347.65H155.951C155.756 347.65 155.598 347.809 155.598 348.005V349.479C155.598 349.676 155.756 349.835 155.951 349.835H158.868C159.064 349.835 159.222 349.676 159.222 349.479V348.005C159.222 347.809 159.064 347.65 158.868 347.65Z" fill="#E5BE7F"/>
<path d="M166.117 347.65H163.201C163.005 347.65 162.847 347.809 162.847 348.005V349.479C162.847 349.676 163.005 349.835 163.201 349.835H166.117C166.313 349.835 166.471 349.676 166.471 349.479V348.005C166.471 347.809 166.313 347.65 166.117 347.65Z" fill="#E5BE7F"/>
<path d="M173.367 347.65H170.45C170.254 347.65 170.096 347.809 170.096 348.005V349.479C170.096 349.676 170.254 349.835 170.45 349.835H173.367C173.562 349.835 173.72 349.676 173.72 349.479V348.005C173.72 347.809 173.562 347.65 173.367 347.65Z" fill="#E5BE7F"/>
<path d="M180.616 347.65H177.699C177.503 347.65 177.345 347.809 177.345 348.005V349.479C177.345 349.676 177.503 349.835 177.699 349.835H180.616C180.811 349.835 180.97 349.676 180.97 349.479V348.005C180.97 347.809 180.811 347.65 180.616 347.65Z" fill="#E5BE7F"/>
<path d="M187.865 347.65H184.948C184.753 347.65 184.594 347.809 184.594 348.005V349.479C184.594 349.676 184.753 349.835 184.948 349.835H187.865C188.06 349.835 188.219 349.676 188.219 349.479V348.005C188.219 347.809 188.06 347.65 187.865 347.65Z" fill="#E5BE7F"/>
<path d="M195.114 347.65H192.197C192.002 347.65 191.843 347.809 191.843 348.005V349.479C191.843 349.676 192.002 349.835 192.197 349.835H195.114C195.309 349.835 195.468 349.676 195.468 349.479V348.005C195.468 347.809 195.309 347.65 195.114 347.65Z" fill="#E5BE7F"/>
<path d="M202.363 347.65H199.446C199.251 347.65 199.092 347.809 199.092 348.005V349.479C199.092 349.676 199.251 349.835 199.446 349.835H202.363C202.559 349.835 202.717 349.676 202.717 349.479V348.005C202.717 347.809 202.559 347.65 202.363 347.65Z" fill="#E5BE7F"/>
<path d="M209.612 347.65H206.695C206.5 347.65 206.342 347.809 206.342 348.005V349.479C206.342 349.676 206.5 349.835 206.695 349.835H209.612C209.808 349.835 209.966 349.676 209.966 349.479V348.005C209.966 347.809 209.808 347.65 209.612 347.65Z" fill="#E5BE7F"/>
<path d="M216.861 347.65H213.945C213.749 347.65 213.591 347.809 213.591 348.005V349.479C213.591 349.676 213.749 349.835 213.945 349.835H216.861C217.057 349.835 217.215 349.676 217.215 349.479V348.005C217.215 347.809 217.057 347.65 216.861 347.65Z" fill="#E5BE7F"/>
<path d="M224.11 347.65H221.194C220.998 347.65 220.84 347.809 220.84 348.005V349.479C220.84 349.676 220.998 349.835 221.194 349.835H224.11C224.306 349.835 224.464 349.676 224.464 349.479V348.005C224.464 347.809 224.306 347.65 224.11 347.65Z" fill="#E5BE7F"/>
<path d="M231.36 347.65H228.443C228.247 347.65 228.089 347.809 228.089 348.005V349.479C228.089 349.676 228.247 349.835 228.443 349.835H231.36C231.555 349.835 231.713 349.676 231.713 349.479V348.005C231.713 347.809 231.555 347.65 231.36 347.65Z" fill="#E5BE7F"/>
<path d="M238.609 347.65H235.692C235.497 347.65 235.338 347.809 235.338 348.005V349.479C235.338 349.676 235.497 349.835 235.692 349.835H238.609C238.804 349.835 238.963 349.676 238.963 349.479V348.005C238.963 347.809 238.804 347.65 238.609 347.65Z" fill="#E5BE7F"/>
<path d="M245.858 347.65H242.941C242.746 347.65 242.587 347.809 242.587 348.005V349.479C242.587 349.676 242.746 349.835 242.941 349.835H245.858C246.053 349.835 246.212 349.676 246.212 349.479V348.005C246.212 347.809 246.053 347.65 245.858 347.65Z" fill="#E5BE7F"/>
<path d="M253.107 347.65H250.19C249.995 347.65 249.836 347.809 249.836 348.005V349.479C249.836 349.676 249.995 349.835 250.19 349.835H253.107C253.302 349.835 253.461 349.676 253.461 349.479V348.005C253.461 347.809 253.302 347.65 253.107 347.65Z" fill="#E5BE7F"/>
<path d="M260.356 347.65H257.439C257.244 347.65 257.085 347.809 257.085 348.005V349.479C257.085 349.676 257.244 349.835 257.439 349.835H260.356C260.552 349.835 260.71 349.676 260.71 349.479V348.005C260.71 347.809 260.552 347.65 260.356 347.65Z" fill="#E5BE7F"/>
<path d="M267.605 347.65H264.689C264.493 347.65 264.335 347.809 264.335 348.005V349.479C264.335 349.676 264.493 349.835 264.689 349.835H267.605C267.801 349.835 267.959 349.676 267.959 349.479V348.005C267.959 347.809 267.801 347.65 267.605 347.65Z" fill="#E5BE7F"/>
<path d="M158.783 351.292H155.866C155.67 351.292 155.512 351.451 155.512 351.647V353.121C155.512 353.317 155.67 353.477 155.866 353.477H158.783C158.978 353.477 159.137 353.317 159.137 353.121V351.647C159.137 351.451 158.978 351.292 158.783 351.292Z" fill="#E5BE7F"/>
<path d="M166.032 351.292H163.115C162.92 351.292 162.761 351.451 162.761 351.647V353.121C162.761 353.317 162.92 353.477 163.115 353.477H166.032C166.227 353.477 166.386 353.317 166.386 353.121V351.647C166.386 351.451 166.227 351.292 166.032 351.292Z" fill="#E5BE7F"/>
<path d="M173.281 351.292H170.364C170.169 351.292 170.01 351.451 170.01 351.647V353.121C170.01 353.317 170.169 353.477 170.364 353.477H173.281C173.476 353.477 173.635 353.317 173.635 353.121V351.647C173.635 351.451 173.476 351.292 173.281 351.292Z" fill="#E5BE7F"/>
<path d="M180.53 351.292H177.613C177.418 351.292 177.259 351.451 177.259 351.647V353.121C177.259 353.317 177.418 353.477 177.613 353.477H180.53C180.725 353.477 180.884 353.317 180.884 353.121V351.647C180.884 351.451 180.725 351.292 180.53 351.292Z" fill="#E5BE7F"/>
<path d="M187.779 351.292H184.862C184.667 351.292 184.508 351.451 184.508 351.647V353.121C184.508 353.317 184.667 353.477 184.862 353.477H187.779C187.975 353.477 188.133 353.317 188.133 353.121V351.647C188.133 351.451 187.975 351.292 187.779 351.292Z" fill="#E5BE7F"/>
<path d="M195.028 351.292H192.112C191.916 351.292 191.758 351.451 191.758 351.647V353.121C191.758 353.317 191.916 353.477 192.112 353.477H195.028C195.224 353.477 195.382 353.317 195.382 353.121V351.647C195.382 351.451 195.224 351.292 195.028 351.292Z" fill="#E5BE7F"/>
<path d="M202.277 351.292H199.361C199.165 351.292 199.007 351.451 199.007 351.647V353.121C199.007 353.317 199.165 353.477 199.361 353.477H202.277C202.473 353.477 202.631 353.317 202.631 353.121V351.647C202.631 351.451 202.473 351.292 202.277 351.292Z" fill="#E5BE7F"/>
<path d="M209.527 351.292H206.61C206.414 351.292 206.256 351.451 206.256 351.647V353.121C206.256 353.317 206.414 353.477 206.61 353.477H209.527C209.722 353.477 209.88 353.317 209.88 353.121V351.647C209.88 351.451 209.722 351.292 209.527 351.292Z" fill="#E5BE7F"/>
<path d="M216.776 351.292H213.859C213.663 351.292 213.505 351.451 213.505 351.647V353.121C213.505 353.317 213.663 353.477 213.859 353.477H216.776C216.971 353.477 217.13 353.317 217.13 353.121V351.647C217.13 351.451 216.971 351.292 216.776 351.292Z" fill="#E5BE7F"/>
<path d="M224.025 351.292H221.108C220.913 351.292 220.754 351.451 220.754 351.647V353.121C220.754 353.317 220.913 353.477 221.108 353.477H224.025C224.22 353.477 224.379 353.317 224.379 353.121V351.647C224.379 351.451 224.22 351.292 224.025 351.292Z" fill="#E5BE7F"/>
<path d="M231.274 351.292H228.357C228.162 351.292 228.003 351.451 228.003 351.647V353.121C228.003 353.317 228.162 353.477 228.357 353.477H231.274C231.469 353.477 231.628 353.317 231.628 353.121V351.647C231.628 351.451 231.469 351.292 231.274 351.292Z" fill="#E5BE7F"/>
<path d="M238.523 351.292H235.606C235.411 351.292 235.252 351.451 235.252 351.647V353.121C235.252 353.317 235.411 353.477 235.606 353.477H238.523C238.719 353.477 238.877 353.317 238.877 353.121V351.647C238.877 351.451 238.719 351.292 238.523 351.292Z" fill="#E5BE7F"/>
<path d="M245.772 351.292H242.855C242.66 351.292 242.502 351.451 242.502 351.647V353.121C242.502 353.317 242.66 353.477 242.855 353.477H245.772C245.968 353.477 246.126 353.317 246.126 353.121V351.647C246.126 351.451 245.968 351.292 245.772 351.292Z" fill="#E5BE7F"/>
<path d="M253.021 351.292H250.105C249.909 351.292 249.751 351.451 249.751 351.647V353.121C249.751 353.317 249.909 353.477 250.105 353.477H253.021C253.217 353.477 253.375 353.317 253.375 353.121V351.647C253.375 351.451 253.217 351.292 253.021 351.292Z" fill="#E5BE7F"/>
<path d="M260.271 351.292H257.354C257.158 351.292 257 351.451 257 351.647V353.121C257 353.317 257.158 353.477 257.354 353.477H260.271C260.466 353.477 260.624 353.317 260.624 353.121V351.647C260.624 351.451 260.466 351.292 260.271 351.292Z" fill="#E5BE7F"/>
<path d="M267.52 351.292H264.603C264.407 351.292 264.249 351.451 264.249 351.647V353.121C264.249 353.317 264.407 353.477 264.603 353.477H267.52C267.715 353.477 267.874 353.317 267.874 353.121V351.647C267.874 351.451 267.715 351.292 267.52 351.292Z" fill="#E5BE7F"/>
<path d="M218.95 355.662H190.662C190.466 355.662 190.308 355.821 190.308 356.017V357.491C190.308 357.688 190.466 357.847 190.662 357.847H218.95C219.146 357.847 219.304 357.688 219.304 357.491V356.017C219.304 355.821 219.146 355.662 218.95 355.662Z" fill="#E5BE7F"/>
<path d="M299.207 179.673H114.119C113.927 179.669 113.744 179.589 113.609 179.451C113.475 179.312 113.399 179.127 113.399 178.933C113.399 178.74 113.475 178.554 113.609 178.416C113.744 178.278 113.927 178.198 114.119 178.194H299.207C299.399 178.198 299.582 178.278 299.717 178.416C299.851 178.554 299.927 178.74 299.927 178.933C299.927 179.127 299.851 179.312 299.717 179.451C299.582 179.589 299.399 179.669 299.207 179.673Z" fill="#E5BE7F"/>
<path d="M126.718 174.418C129.101 174.418 131.032 172.434 131.032 169.987C131.032 167.54 129.101 165.556 126.718 165.556C124.336 165.556 122.405 167.54 122.405 169.987C122.405 172.434 124.336 174.418 126.718 174.418Z" fill="#E5BE7F"/>
<path d="M141.62 174.418C144.002 174.418 145.933 172.434 145.933 169.987C145.933 167.54 144.002 165.556 141.62 165.556C139.238 165.556 137.306 167.54 137.306 169.987C137.306 172.434 139.238 174.418 141.62 174.418Z" fill="#E5BE7F"/>
<path d="M156.521 174.418C158.903 174.418 160.835 172.434 160.835 169.987C160.835 167.54 158.903 165.556 156.521 165.556C154.139 165.556 152.208 167.54 152.208 169.987C152.208 172.434 154.139 174.418 156.521 174.418Z" fill="#E5BE7F"/>
<path d="M290.234 166.652H279.65C279.441 166.657 279.242 166.744 279.095 166.894C278.949 167.045 278.867 167.246 278.867 167.457C278.867 167.667 278.949 167.869 279.095 168.019C279.242 168.17 279.441 168.257 279.65 168.262H290.234C290.444 168.259 290.645 168.172 290.793 168.022C290.941 167.871 291.023 167.668 291.023 167.457C291.023 167.245 290.941 167.042 290.793 166.892C290.645 166.741 290.444 166.655 290.234 166.652Z" fill="#E5BE7F"/>
<path d="M290.234 169.675H279.65C279.441 169.679 279.241 169.766 279.095 169.917C278.948 170.067 278.866 170.269 278.866 170.48C278.866 170.69 278.948 170.892 279.095 171.043C279.241 171.193 279.441 171.28 279.65 171.285H290.234C290.444 171.282 290.646 171.196 290.794 171.045C290.942 170.895 291.025 170.691 291.025 170.48C291.025 170.268 290.942 170.065 290.794 169.914C290.646 169.763 290.444 169.677 290.234 169.675Z" fill="#E5BE7F"/>
<path d="M290.234 172.697H279.65C279.441 172.702 279.242 172.789 279.095 172.94C278.949 173.09 278.867 173.292 278.867 173.502C278.867 173.712 278.949 173.914 279.095 174.065C279.242 174.215 279.441 174.302 279.65 174.307H290.234C290.444 174.304 290.645 174.218 290.793 174.067C290.941 173.917 291.023 173.714 291.023 173.502C291.023 173.291 290.941 173.088 290.793 172.937C290.645 172.786 290.444 172.7 290.234 172.697Z" fill="#E5BE7F"/>
<path d="M130.079 196.86H126.276C125.123 196.86 124.188 197.799 124.188 198.958C124.188 200.116 125.123 201.055 126.276 201.055H130.079C131.232 201.055 132.166 200.116 132.166 198.958C132.166 197.799 131.232 196.86 130.079 196.86Z" fill="#E6E6E6"/>
<path d="M173.573 196.86H169.77C168.617 196.86 167.683 197.799 167.683 198.958C167.683 200.116 168.617 201.055 169.77 201.055H173.573C174.726 201.055 175.661 200.116 175.661 198.958C175.661 197.799 174.726 196.86 173.573 196.86Z" fill="#E6E6E6"/>
<path d="M185.897 196.86H182.094C180.941 196.86 180.006 197.799 180.006 198.958C180.006 200.116 180.941 201.055 182.094 201.055H185.897C187.05 201.055 187.985 200.116 187.985 198.958C187.985 197.799 187.05 196.86 185.897 196.86Z" fill="#E6E6E6"/>
<path d="M161.743 196.51H138.106C136.953 196.51 136.019 197.449 136.019 198.608C136.019 199.766 136.953 200.706 138.106 200.706H161.743C162.896 200.706 163.83 199.766 163.83 198.608C163.83 197.449 162.896 196.51 161.743 196.51Z" fill="#E6E6E6"/>
<path d="M219.736 196.51H196.099C194.946 196.51 194.012 197.449 194.012 198.608C194.012 199.766 194.946 200.706 196.099 200.706H219.736C220.889 200.706 221.824 199.766 221.824 198.608C221.824 197.449 220.889 196.51 219.736 196.51Z" fill="#E6E6E6"/>
<path d="M141.677 206.329H137.874C136.721 206.329 135.787 207.268 135.787 208.426C135.787 209.585 136.721 210.524 137.874 210.524H141.677C142.83 210.524 143.765 209.585 143.765 208.426C143.765 207.268 142.83 206.329 141.677 206.329Z" fill="#E6E6E6"/>
<path d="M185.172 206.329H181.369C180.216 206.329 179.281 207.268 179.281 208.426C179.281 209.585 180.216 210.524 181.369 210.524H185.172C186.325 210.524 187.26 209.585 187.26 208.426C187.26 207.268 186.325 206.329 185.172 206.329Z" fill="#E6E6E6"/>
<path d="M197.496 206.329H193.693C192.54 206.329 191.605 207.268 191.605 208.426C191.605 209.585 192.54 210.524 193.693 210.524H197.496C198.649 210.524 199.583 209.585 199.583 208.426C199.583 207.268 198.649 206.329 197.496 206.329Z" fill="#E6E6E6"/>
<path d="M173.341 205.979H149.705C148.552 205.979 147.617 206.918 147.617 208.077C147.617 209.235 148.552 210.174 149.705 210.174H173.341C174.494 210.174 175.429 209.235 175.429 208.077C175.429 206.918 174.494 205.979 173.341 205.979Z" fill="#E6E6E6"/>
<path d="M231.334 205.979H207.698C206.545 205.979 205.61 206.918 205.61 208.077C205.61 209.235 206.545 210.174 207.698 210.174H231.334C232.487 210.174 233.422 209.235 233.422 208.077C233.422 206.918 232.487 205.979 231.334 205.979Z" fill="#E6E6E6"/>
<path d="M153.276 215.798H149.473C148.32 215.798 147.385 216.737 147.385 217.896C147.385 219.054 148.32 219.993 149.473 219.993H153.276C154.429 219.993 155.364 219.054 155.364 217.896C155.364 216.737 154.429 215.798 153.276 215.798Z" fill="#E6E6E6"/>
<path d="M196.771 215.798H192.968C191.815 215.798 190.88 216.737 190.88 217.896C190.88 219.054 191.815 219.993 192.968 219.993H196.771C197.924 219.993 198.858 219.054 198.858 217.896C198.858 216.737 197.924 215.798 196.771 215.798Z" fill="#E6E6E6"/>
<path d="M209.094 215.798H205.291C204.138 215.798 203.203 216.737 203.203 217.896C203.203 219.054 204.138 219.993 205.291 219.993H209.094C210.247 219.993 211.182 219.054 211.182 217.896C211.182 216.737 210.247 215.798 209.094 215.798Z" fill="#E6E6E6"/>
<path d="M184.94 215.448H161.304C160.151 215.448 159.216 216.387 159.216 217.545C159.216 218.704 160.151 219.643 161.304 219.643H184.94C186.093 219.643 187.028 218.704 187.028 217.545C187.028 216.387 186.093 215.448 184.94 215.448Z" fill="#E6E6E6"/>
<path d="M242.933 215.448H219.297C218.144 215.448 217.209 216.387 217.209 217.545C217.209 218.704 218.144 219.643 219.297 219.643H242.933C244.086 219.643 245.021 218.704 245.021 217.545C245.021 216.387 244.086 215.448 242.933 215.448Z" fill="#E6E6E6"/>
<path d="M164.875 225.267H161.071C159.918 225.267 158.984 226.206 158.984 227.364C158.984 228.523 159.918 229.462 161.071 229.462H164.875C166.028 229.462 166.962 228.523 166.962 227.364C166.962 226.206 166.028 225.267 164.875 225.267Z" fill="#E6E6E6"/>
<path d="M208.369 225.267H204.566C203.413 225.267 202.479 226.206 202.479 227.364C202.479 228.523 203.413 229.462 204.566 229.462H208.369C209.522 229.462 210.457 228.523 210.457 227.364C210.457 226.206 209.522 225.267 208.369 225.267Z" fill="#E6E6E6"/>
<path d="M220.693 225.267H216.89C215.737 225.267 214.802 226.206 214.802 227.364C214.802 228.523 215.737 229.462 216.89 229.462H220.693C221.846 229.462 222.781 228.523 222.781 227.364C222.781 226.206 221.846 225.267 220.693 225.267Z" fill="#E6E6E6"/>
<path d="M196.539 224.917H172.902C171.749 224.917 170.814 225.856 170.814 227.015C170.814 228.173 171.749 229.112 172.902 229.112H196.539C197.692 229.112 198.626 228.173 198.626 227.015C198.626 225.856 197.692 224.917 196.539 224.917Z" fill="#E6E6E6"/>
<path d="M173.573 262.919H169.77C168.617 262.919 167.683 263.858 167.683 265.017C167.683 266.175 168.617 267.114 169.77 267.114H173.573C174.726 267.114 175.661 266.175 175.661 265.017C175.661 263.858 174.726 262.919 173.573 262.919Z" fill="#E6E6E6"/>
<path d="M185.897 262.919H182.094C180.941 262.919 180.006 263.858 180.006 265.017C180.006 266.175 180.941 267.114 182.094 267.114H185.897C187.05 267.114 187.985 266.175 187.985 265.017C187.985 263.858 187.05 262.919 185.897 262.919Z" fill="#E6E6E6"/>
<path d="M219.736 263.269H196.099C194.946 263.269 194.012 264.208 194.012 265.366C194.012 266.525 194.946 267.464 196.099 267.464H219.736C220.889 267.464 221.824 266.525 221.824 265.366C221.824 264.208 220.889 263.269 219.736 263.269Z" fill="#E6E6E6"/>
<path d="M130.079 262.919H126.276C125.123 262.919 124.188 263.858 124.188 265.017C124.188 266.175 125.123 267.114 126.276 267.114H130.079C131.232 267.114 132.166 266.175 132.166 265.017C132.166 263.858 131.232 262.919 130.079 262.919Z" fill="#E6E6E6"/>
<path d="M161.743 263.269H138.106C136.953 263.269 136.019 264.208 136.019 265.366C136.019 266.525 136.953 267.464 138.106 267.464H161.743C162.896 267.464 163.83 266.525 163.83 265.366C163.83 264.208 162.896 263.269 161.743 263.269Z" fill="#E6E6E6"/>
<path d="M141.677 253.45H137.874C136.721 253.45 135.787 254.389 135.787 255.547C135.787 256.706 136.721 257.645 137.874 257.645H141.677C142.83 257.645 143.765 256.706 143.765 255.547C143.765 254.389 142.83 253.45 141.677 253.45Z" fill="#E6E6E6"/>
<path d="M185.172 253.45H181.369C180.216 253.45 179.281 254.389 179.281 255.547C179.281 256.706 180.216 257.645 181.369 257.645H185.172C186.325 257.645 187.26 256.706 187.26 255.547C187.26 254.389 186.325 253.45 185.172 253.45Z" fill="#E6E6E6"/>
<path d="M197.496 253.45H193.693C192.54 253.45 191.605 254.389 191.605 255.547C191.605 256.706 192.54 257.645 193.693 257.645H197.496C198.649 257.645 199.583 256.706 199.583 255.547C199.583 254.389 198.649 253.45 197.496 253.45Z" fill="#E6E6E6"/>
<path d="M173.341 253.8H149.705C148.552 253.8 147.617 254.739 147.617 255.898C147.617 257.056 148.552 257.995 149.705 257.995H173.341C174.494 257.995 175.429 257.056 175.429 255.898C175.429 254.739 174.494 253.8 173.341 253.8Z" fill="#E6E6E6"/>
<path d="M153.276 243.981H149.473C148.32 243.981 147.385 244.92 147.385 246.079C147.385 247.237 148.32 248.176 149.473 248.176H153.276C154.429 248.176 155.364 247.237 155.364 246.079C155.364 244.92 154.429 243.981 153.276 243.981Z" fill="#E6E6E6"/>
<path d="M196.771 243.981H192.968C191.815 243.981 190.88 244.92 190.88 246.079C190.88 247.237 191.815 248.176 192.968 248.176H196.771C197.924 248.176 198.858 247.237 198.858 246.079C198.858 244.92 197.924 243.981 196.771 243.981Z" fill="#E6E6E6"/>
<path d="M209.094 243.981H205.291C204.138 243.981 203.203 244.92 203.203 246.079C203.203 247.237 204.138 248.176 205.291 248.176H209.094C210.247 248.176 211.182 247.237 211.182 246.079C211.182 244.92 210.247 243.981 209.094 243.981Z" fill="#E6E6E6"/>
<path d="M184.94 244.331H161.304C160.151 244.331 159.216 245.27 159.216 246.428C159.216 247.587 160.151 248.526 161.304 248.526H184.94C186.093 248.526 187.028 247.587 187.028 246.428C187.028 245.27 186.093 244.331 184.94 244.331Z" fill="#E6E6E6"/>
<path d="M164.875 234.512H161.071C159.918 234.512 158.984 235.451 158.984 236.61C158.984 237.768 159.918 238.708 161.071 238.708H164.875C166.028 238.708 166.962 237.768 166.962 236.61C166.962 235.451 166.028 234.512 164.875 234.512Z" fill="#E6E6E6"/>
<path d="M208.369 234.512H204.566C203.413 234.512 202.479 235.451 202.479 236.61C202.479 237.768 203.413 238.708 204.566 238.708H208.369C209.522 238.708 210.457 237.768 210.457 236.61C210.457 235.451 209.522 234.512 208.369 234.512Z" fill="#E6E6E6"/>
<path d="M220.693 234.512H216.89C215.737 234.512 214.802 235.451 214.802 236.61C214.802 237.768 215.737 238.708 216.89 238.708H220.693C221.846 238.708 222.781 237.768 222.781 236.61C222.781 235.451 221.846 234.512 220.693 234.512Z" fill="#E6E6E6"/>
<path d="M196.539 234.862H172.902C171.749 234.862 170.814 235.801 170.814 236.96C170.814 238.118 171.749 239.057 172.902 239.057H196.539C197.692 239.057 198.626 238.118 198.626 236.96C198.626 235.801 197.692 234.862 196.539 234.862Z" fill="#E6E6E6"/>
<path d="M301.426 399.71C300.984 399.936 300.535 400.161 300.092 400.38C288.639 406.134 279.476 409.404 266.942 412.988C265.884 401.115 264.862 380.248 263.868 367.312C263.608 363.954 263.347 361.135 263.093 359.147C263.029 358.089 262.814 357.047 262.455 356.051L262.498 359.147L262.607 367.312L263.238 414.008C247.647 418.153 231.631 420.472 215.509 420.92C214.669 420.942 213.842 420.956 213.045 420.971C212.762 420.978 212.487 420.985 212.211 420.985C211.305 420.993 210.406 421 209.5 421C192.511 421.013 175.583 418.951 159.09 414.86C159.445 403.111 159.8 382.476 160.141 367.312C160.213 364.347 160.278 361.587 160.351 359.147C160.489 353.931 160.634 350.173 160.771 348.913C160.649 349.136 160.554 349.373 160.489 349.619C159.817 352.76 159.359 355.943 159.118 359.147C158.865 361.587 158.611 364.347 158.357 367.312C157.009 383.066 155.603 404.488 154.153 413.571C145.523 411.203 137.055 408.277 128.803 404.808C124.453 402.987 120.181 401.023 115.986 398.916C116.784 393.671 117.617 387.793 118.473 381.697C119.14 376.97 119.828 372.112 120.531 367.312C121.619 359.897 122.735 352.628 123.866 346.225C125.519 336.873 127.215 329.356 128.897 325.904C130.492 322.626 132.086 319.392 133.631 316.296C134.167 315.211 134.703 314.14 135.225 313.099C135.349 312.851 135.472 312.611 135.595 312.37C136.704 310.178 137.777 308.08 138.799 306.114C139.676 304.431 140.51 302.843 141.3 301.379C143.214 297.825 144.838 294.991 146.041 293.2C151.072 285.532 158.562 279.824 167.267 277.022L167.484 276.964L167.636 277.03L182.461 272.456L184.628 271.785L186.085 271.334L191.218 267.408L194.009 265.274L196.626 263.271L201.743 259.359L233.429 261.319L239.598 276.243L253.415 281.32L253.654 281.211L253.865 281.123L254.082 281.181C262.786 283.985 270.275 289.693 275.308 297.359C275.989 298.386 276.815 299.74 277.751 301.379C278.548 302.77 279.418 304.358 280.36 306.114C281.701 308.612 283.166 311.431 284.717 314.483C285.058 315.153 285.406 315.837 285.754 316.529C286.399 317.811 287.054 319.12 287.718 320.455C289.262 323.551 290.857 326.785 292.452 330.07C293.836 332.918 295.235 338.774 296.613 346.225C297.751 352.416 298.882 359.715 299.976 367.312C301.412 377.159 299.882 388.952 301.18 398.013C301.26 398.588 301.347 399.149 301.426 399.71Z" fill="#E5BE7F"/>
<path d="M209.946 247.446C230.299 247.446 246.798 230.869 246.798 210.419C246.798 189.969 230.299 173.391 209.946 173.391C189.593 173.391 173.094 189.969 173.094 210.419C173.094 230.869 189.593 247.446 209.946 247.446Z" fill="#A0616A"/>
<path d="M270.719 161.35C269.991 159.641 269.021 158.046 267.841 156.615C262.245 149.747 252.067 146.724 241.621 154.852C239.61 154.401 237.514 154.522 235.568 155.202C234.649 155.536 233.788 156.013 233.016 156.615C231.434 157.855 230.2 159.486 229.435 161.35C229.026 162.334 228.758 163.371 228.638 164.431C226.055 163.083 223.323 162.048 220.497 161.35C213.564 159.617 206.313 159.617 199.38 161.35C197.158 161.914 195.019 162.766 193.015 163.884C189.623 165.851 187.673 168.335 187.325 171.095C182.432 171.372 177.343 173.958 173.552 178.197C173.124 178.67 172.711 179.166 172.326 179.675C169.138 183.867 167.425 189.004 167.455 194.279V195.204H168.376C170.898 195.202 173.397 195.692 175.734 196.647C177.248 197.258 178.681 198.053 180.003 199.014C180.868 199.63 181.685 200.312 182.446 201.053C184.212 202.771 185.708 204.748 186.883 206.917C189.894 212.397 190.939 218.752 189.84 224.915C189.588 226.341 189.22 227.744 188.738 229.11C188.054 231.059 187.151 232.923 186.049 234.668C186.006 234.733 185.969 234.799 185.926 234.864C185.44 235.644 184.976 236.438 184.541 237.239C184.215 237.836 183.911 238.448 183.628 239.06C182.802 240.763 182.104 242.525 181.54 244.333C180.531 247.531 179.937 250.845 179.771 254.195C179.721 255.084 179.706 255.973 179.735 256.861C179.778 259.152 180.028 261.434 180.482 263.679C180.547 263.985 180.612 264.283 180.677 264.589L181.207 266.913L182.461 272.456L183.331 276.272L184.135 279.812L185.324 278.101C185.73 277.518 186.752 275.726 188.122 273.191C189.028 271.538 190.08 269.564 191.218 267.408C192.805 264.385 194.545 261.013 196.249 257.648C196.937 256.286 197.619 254.931 198.278 253.605C199.525 251.093 200.7 248.667 201.707 246.511C202.635 244.523 203.425 242.76 204.012 241.347C204.194 242.272 204.346 243.212 204.462 244.158C204.592 245.12 204.687 246.096 204.737 247.072C204.752 247.218 204.759 247.371 204.766 247.516L204.795 248.114L204.803 248.288L205.571 248.39C210.003 248.867 214.471 248.901 218.909 248.492H218.917C224.797 248.047 230.565 246.643 235.996 244.333C239.08 242.989 241.96 241.214 244.55 239.06C245.76 238.053 246.889 236.952 247.928 235.768C248.189 235.469 248.442 235.17 248.689 234.864C250.123 233.093 251.352 231.162 252.35 229.11C253.018 227.756 253.585 226.354 254.046 224.915C256.83 216.444 256.67 205.875 253.567 193.318C254.406 193.156 255.208 192.845 255.938 192.4C258.214 191.024 259.795 188.292 260.287 184.956L261.07 185.167C263.846 183.869 266.318 181.997 268.327 179.676C268.725 179.203 269.097 178.709 269.443 178.197C272.988 172.953 273.017 166.659 270.719 161.35Z" fill="#2F2E41"/>
<path opacity="0.2" d="M149.564 346.193L155.724 322.308L161.163 342.918L149.564 346.193Z" fill="black"/>
<path d="M313.474 330.631C311.271 361.135 313.554 374.566 301.39 399.717C290.322 405.16 278.794 409.601 266.942 412.988C265.71 413.337 264.475 413.677 263.238 414.008C247.647 418.152 231.631 420.472 215.509 420.92C214.669 420.942 213.842 420.956 213.045 420.971C212.762 420.978 212.487 420.985 212.211 420.985C211.305 420.993 210.406 421 209.5 421C192.511 421.013 175.583 418.951 159.09 414.86C157.437 414.452 155.791 414.022 154.153 413.571C145.523 411.203 137.055 408.276 128.803 404.808C124.453 402.987 120.181 401.023 115.986 398.916C115.037 398.435 114.087 397.954 113.152 397.459C108.346 388.966 105.613 378.638 105.555 366.226C108.882 344.841 306.124 312.188 313.474 330.631Z" fill="#2F2E41"/>
<path opacity="0.2" d="M313.469 335.855C313.581 333.966 313.707 332.016 313.854 329.984C306.503 311.542 109.261 344.195 105.934 365.58C105.943 367.54 106.027 369.443 106.167 371.301C114.225 350.194 301.607 319.159 313.469 335.855Z" fill="black"/>
<path d="M118.23 249.214C118.278 248.554 118.185 247.891 117.957 247.27C117.728 246.649 117.37 246.084 116.906 245.614C116.442 245.143 115.884 244.778 115.268 244.543C114.652 244.308 113.993 244.208 113.335 244.25C113.09 244.259 112.846 244.29 112.606 244.342L83.7824 250.884C83.1383 251.041 82.534 251.332 82.0085 251.738C81.4831 252.144 81.048 252.656 80.7314 253.241C80.3087 253.257 79.8889 253.318 79.4792 253.424C78.5822 253.628 77.7341 254.008 76.9832 254.541C76.2323 255.075 75.5933 255.752 75.1028 256.534C74.6123 257.315 74.2799 258.187 74.1245 259.097C73.969 260.008 73.9937 260.941 74.197 261.842C74.4003 262.743 74.7783 263.596 75.3094 264.35C75.8405 265.105 76.5143 265.747 77.2923 266.239C78.8636 267.235 80.764 267.562 82.5756 267.15C83.6067 266.909 84.5713 266.44 85.3988 265.777L95.1662 293.412C95.6542 294.278 96.4079 294.962 97.3148 295.362C98.2218 295.762 99.2332 295.856 100.198 295.631L118.936 291.376C119.893 291.151 120.755 290.626 121.397 289.878C122.039 289.13 122.429 288.197 122.51 287.212L118.23 249.214ZM82.143 265.182C80.8492 265.476 79.4925 265.241 78.3704 264.531C77.2482 263.821 76.4522 262.692 76.1568 261.393C75.8615 260.094 76.0909 258.73 76.7948 257.601C77.4987 256.471 78.6196 255.669 79.9118 255.368C80.0028 255.345 80.094 255.368 80.185 255.345C80.1781 256.179 80.3902 257 80.7998 257.724L84.3742 263.993C83.752 264.586 82.9805 264.997 82.143 265.182Z" fill="#2F2E41"/>
<path d="M113.335 244.25C113.608 247.91 107.37 252.12 99.0141 253.79C91.3411 255.368 84.4653 254.27 82.53 251.388C82.919 251.156 83.3415 250.986 83.7823 250.884L112.606 244.342C112.846 244.29 113.09 244.259 113.335 244.25Z" fill="#E5BE7F"/>
<path d="M93.4003 337.168L109.59 329.034L96.0986 292.433L92.5429 273.974C92.081 271.576 91.0007 269.342 89.4102 267.495C87.8196 265.648 85.7743 264.252 83.4789 263.448C81.1834 262.644 78.7181 262.459 76.3293 262.912C73.9405 263.365 71.7118 264.44 69.866 266.03C67.1309 268.385 65.4135 271.717 65.0764 275.32C64.7393 278.924 65.8088 282.519 68.0592 285.345L81.2578 301.922L93.4003 337.168Z" fill="#A0616A"/>
<path d="M109.59 322.256L88.0037 333.101L104.386 384.677C105.562 388.38 107.671 391.716 110.508 394.359C113.345 397.003 116.813 398.865 120.577 399.766C125.218 400.876 130.091 400.472 134.488 398.613C138.885 396.754 142.579 393.536 145.034 389.425L188.474 314.611C191.553 309.456 192.503 303.295 191.122 297.446C189.741 291.596 186.138 286.521 181.083 283.304C178.365 281.574 175.314 280.438 172.129 279.971C168.945 279.504 165.699 279.716 162.601 280.593C159.504 281.471 156.625 282.993 154.152 285.062C151.679 287.131 149.667 289.7 148.247 292.602L121.733 349.369L109.59 322.256Z" fill="#E5BE7F"/>
<path d="M102.914 275.647C102.874 275.647 102.834 275.64 102.796 275.627L98.0828 273.997C98.0259 273.977 97.9747 273.944 97.9339 273.899C97.8931 273.855 97.864 273.801 97.8492 273.742C97.8344 273.683 97.8344 273.622 97.8491 273.563C97.8639 273.505 97.893 273.451 97.9338 273.406L101.439 269.572C101.471 269.536 101.51 269.508 101.553 269.487C101.596 269.467 101.643 269.455 101.691 269.453C101.738 269.451 101.786 269.458 101.831 269.475C101.876 269.491 101.917 269.516 101.952 269.548C101.987 269.581 102.016 269.62 102.036 269.663C102.056 269.707 102.067 269.754 102.069 269.802C102.071 269.85 102.063 269.898 102.047 269.943C102.03 269.987 102.005 270.029 101.973 270.064L98.842 273.489L103.032 274.938C103.113 274.966 103.181 275.023 103.225 275.097C103.269 275.171 103.285 275.258 103.271 275.343C103.257 275.428 103.213 275.505 103.148 275.561C103.082 275.616 102.999 275.647 102.914 275.647Z" fill="#6C63FF"/>
<path d="M109.374 274.318C109.302 274.318 109.231 274.296 109.171 274.256C109.111 274.215 109.065 274.157 109.038 274.09C109.011 274.023 109.004 273.949 109.019 273.878C109.034 273.807 109.07 273.742 109.122 273.692L112.307 270.597L108.028 268.825C107.984 268.807 107.944 268.78 107.91 268.747C107.876 268.713 107.85 268.673 107.831 268.629C107.813 268.584 107.803 268.537 107.803 268.489C107.803 268.441 107.812 268.394 107.831 268.35C107.849 268.305 107.875 268.265 107.909 268.231C107.943 268.198 107.983 268.171 108.027 268.152C108.071 268.134 108.118 268.125 108.165 268.125C108.213 268.125 108.26 268.134 108.304 268.152L113.095 270.136C113.151 270.159 113.2 270.196 113.238 270.242C113.276 270.289 113.302 270.345 113.313 270.404C113.325 270.464 113.321 270.525 113.303 270.583C113.285 270.64 113.253 270.692 113.209 270.734L109.626 274.215C109.558 274.281 109.468 274.318 109.374 274.318Z" fill="#6C63FF"/>
<path d="M103.903 277.875C103.867 277.875 103.831 277.869 103.796 277.858C103.751 277.844 103.709 277.821 103.672 277.791C103.635 277.76 103.605 277.723 103.582 277.681C103.56 277.638 103.546 277.592 103.542 277.544C103.537 277.497 103.542 277.449 103.556 277.403L106.902 266.477C106.93 266.385 106.994 266.309 107.079 266.264C107.164 266.219 107.263 266.209 107.355 266.238C107.446 266.266 107.523 266.33 107.568 266.415C107.613 266.5 107.623 266.6 107.595 266.692L104.249 277.618C104.227 277.692 104.181 277.757 104.118 277.804C104.056 277.85 103.98 277.875 103.903 277.875Z" fill="#6C63FF"/>
</g>
<defs>
<clipPath id="clip0_1901_94">
<rect width="419" height="421" fill="white"/>
</clipPath>
</defs>
</svg>
